<mxfile host="app.diagrams.net" modified="2023-10-19T20:02:21.216Z" agent="Mozilla/5.0 (Windows NT 10.0; Win64; x64) AppleWebKit/537.36 (KHTML, like Gecko) Chrome/118.0.0.0 Safari/537.36" etag="TPiObUZ08qHBFn2TZz5J" version="22.0.5" type="device">
  <diagram name="Page-1" id="2QT_lNVm0PMfu-Lq5uc8">
    <mxGraphModel dx="1434" dy="758" grid="1" gridSize="10" guides="1" tooltips="1" connect="1" arrows="1" fold="1" page="1" pageScale="1" pageWidth="827" pageHeight="1169" math="0" shadow="0">
      <root>
        <mxCell id="0" />
        <mxCell id="1" parent="0" />
        <mxCell id="AxvtLqLGwLsLvkJOeLT1-7" value="" style="group" vertex="1" connectable="0" parent="1">
          <mxGeometry x="290" y="30" width="242" height="166" as="geometry" />
        </mxCell>
        <mxCell id="AxvtLqLGwLsLvkJOeLT1-10" value="" style="group" vertex="1" connectable="0" parent="AxvtLqLGwLsLvkJOeLT1-7">
          <mxGeometry width="242" height="166" as="geometry" />
        </mxCell>
        <mxCell id="AxvtLqLGwLsLvkJOeLT1-4" value="" style="sketch=0;aspect=fixed;pointerEvents=1;shadow=0;dashed=0;html=1;strokeColor=none;labelPosition=center;verticalLabelPosition=bottom;verticalAlign=top;align=center;fillColor=#00188D;shape=mxgraph.mscae.enterprise.wireless_connection;direction=west;" vertex="1" parent="AxvtLqLGwLsLvkJOeLT1-10">
          <mxGeometry y="40" width="42" height="50" as="geometry" />
        </mxCell>
        <mxCell id="AxvtLqLGwLsLvkJOeLT1-9" value="" style="group" vertex="1" connectable="0" parent="AxvtLqLGwLsLvkJOeLT1-10">
          <mxGeometry x="62" width="180" height="166" as="geometry" />
        </mxCell>
        <mxCell id="AxvtLqLGwLsLvkJOeLT1-6" value="" style="sketch=0;aspect=fixed;pointerEvents=1;shadow=0;dashed=0;html=1;strokeColor=none;labelPosition=center;verticalLabelPosition=bottom;verticalAlign=top;align=center;fillColor=#00188D;shape=mxgraph.mscae.enterprise.wireless_connection;direction=south;" vertex="1" parent="AxvtLqLGwLsLvkJOeLT1-9">
          <mxGeometry x="34" y="124" width="50" height="42" as="geometry" />
        </mxCell>
        <mxCell id="AxvtLqLGwLsLvkJOeLT1-8" value="" style="group" vertex="1" connectable="0" parent="AxvtLqLGwLsLvkJOeLT1-9">
          <mxGeometry width="180" height="110" as="geometry" />
        </mxCell>
        <mxCell id="AxvtLqLGwLsLvkJOeLT1-3" value="" style="group" vertex="1" connectable="0" parent="AxvtLqLGwLsLvkJOeLT1-8">
          <mxGeometry width="123" height="110" as="geometry" />
        </mxCell>
        <mxCell id="AxvtLqLGwLsLvkJOeLT1-2" value="" style="points=[[0.03,0.36,0],[0.18,0,0],[0.5,0.34,0],[0.82,0,0],[0.97,0.36,0],[1,0.67,0],[0.975,0.975,0],[0.5,1,0],[0.025,0.975,0],[0,0.67,0]];verticalLabelPosition=bottom;sketch=0;html=1;verticalAlign=top;aspect=fixed;align=center;pointerEvents=1;shape=mxgraph.cisco19.wireless_access_point;fillColor=#005073;strokeColor=none;" vertex="1" parent="AxvtLqLGwLsLvkJOeLT1-3">
          <mxGeometry x="21.5" width="86.65" height="86.65" as="geometry" />
        </mxCell>
        <mxCell id="AxvtLqLGwLsLvkJOeLT1-1" value="" style="shape=image;verticalLabelPosition=bottom;labelBackgroundColor=default;verticalAlign=top;aspect=fixed;imageAspect=0;image=data:image/png,iVBORw0KGgoAAAANSUhEUgAAAREAAAC5CAMAAAA4cvuLAAAB71BMVEX///8Acj3Pz88AAADP5/X//5mMjIwAeEA7Ozvu7u4AdT9+fn4APwr9+/yzra7MzMwAfEIABwAAbjrc3NwANwBWVlfj4+MAaTcROiJXU1YMLBhcXFzV1dVNTU0AYi0XLB4ATCgqKioAXzE4LjJnYWN2dnYAIgDz1ZIvIyoiIiL//6JpaWm+uLvl//8AUSFIQ0abmpo3PTcARh0AeTk1LzMAai3/zJoAJwB0bEEWUSoAGwwlHyD//61BQUGJiYmywNCJiVYuNTmnnGEiEBofPis+UUExPCUfJyFIYzr/1qEAWS8APiCioqLZqIEoKDMYABVycVMAYiI2WEUiaUHH3Oiyv9B9fVceHi9gfmdYWEgAWQwXTS7l5Iu7unaammXPz4NLZ12LdQf/2Erd7OW9pIJENT0rekyJtp9GjGViYku12MjY14QbGy6Iu6Myjl8FBioAHADXwIY9e1HG1MoAjEqaoa7ywSP/zosvPzQtZ0dfVTlelnRsqIp3o4ljjW0lHzKczLddpYRNSTENDBhHeUIvTy8yYi1se3uotJN8im12lWUoJheLlqS2vaCUmYGMondoakBollx/joN4YA9Say7puj7/71C/sHiqlWDBoWeqoYVecm1Nc0n/554vUDWJqZLE4NR6hlicfEHOmyKhh2OYdxM4AAAgAElEQVR4nO2djWPTVpboJavI+sCSI9dWsKRUdiOKIzUIsF/aUIsEytC1tWlMaCghH7PPU8cxTUqT8gpNQp12pszOMjPd7r5HO4WSvjd/6DtXkhN/xrFioJ3hYHwlRbJ1fz73nHM/hWG/EAnR7ST0om/rBQpnca2iBTqdvg8rRHtHGnd//cLLWKhZMCPS4ewQqXEYHaFDkRgdpWM0HcEsOhYKRWjDlv9BFIvn25SZjkSwEGditkaaph6LshJnsSHNkDielXnbij3P+3524hIBxUBv3YnEbBMzZYvA9EhCNwzeDEVNI8vJGJ+1n+dtP0NxiIQM27Rl3uhKJGQbPGaShmGQIcvgYzIbUizelM2YbPxD6QimUZIRMaOxrjoSgL8YXAgL0KBQMh0BJo5ZAYNL/4PYVldHWILFeImIhLoRQdLgm/9ROOyLS0Q3CU3heK2rjvwTiGtZI3SMB80PvCTSs/f9JxAfRGSzUUjz2QOEaNALi/c8WigW2bNidCwWosEKYrEY7exGQu4maD+61LkY7F8MrnJP6Sw+iBjX3nylQa5x9ffu3mXtW2l0t3C7RwxoDdPCODIUCWBWTI7RcgxyZ2oRjoXvg23WtGlD40meJEn4ToMkOdkyDYy2WZk0dYzFIlwIfjgqRius1LGO4ogPIvy1VzoTiVkcydOBCBuLRGT4pXTM1CzdsGRZPhISXqc1jrfZCKlzGscaSFVIg7Yw3uboAHjKGGdyOkVjEvwGthzjsug3oG2b1vgEJmEBM2TJEVYKSWaXULLfRGSLTHFmysxyEqtoNAbRrWmTpAkhz5HUxJACUHngOT46iSkRg4cP42wsRmKxrIFFNMy0OTZGKjKmABHOJmldRmUkwpkKxwER2aStiG4kZMUyny+RGBkFGBIZ5RRN0mksZSuKpJsxjKWOErlw8GMbtk1aMUsLoZIQw+isHeOHAzwUGMy27QDUWW3etrkQFzJ0zZBNG0JJ3jZYMCIsHIXzyAhvcgHy+RKheV6GVwC9B6A6zEPlh0c6HuCPoiMR+KhQyODAIsXAZkaQoY3IEDbH6BDYkZAcQ4YTLCtU5SPIssJZEFLDm2PCkBGWkYHFICzvUtvoN5FnKs+lJetXReS5iB8iF5qJGM/rbp+H9EKEmnSE8tJ9cQ8Q1jO5w/Ytwc9MQkag7cF2txEafvNAuWAd4uZ7tgQhmyAGnpEQLQLHohD7NjWz0hh/l2h3+ummWLVJLrRe0Sp2r0j4MTwcfEYSbhFBHLrKyYFmke17QyLecvY5pQuRsc/qTj53rvX7QMb4XokcFwZfe0aiBvEGYXJfTHSWgTDeJJmuRJxLSuhN2ARBqffffcPx8Ku9ExGvvD41lUZyyktOOcnUl27i7n3pJKfaJg1X186fSp9Sm/LIvH3xnZFO8g7hk4iwWSoUBKG6vLwJFNYyGbwMl2ZK8B/PCP6IpFemb4BBz65MKxTI9ApKstPTaOfG9ErWTby9NCRwPrWXTE47CVyddS6rXZ1NtyEycqyT+CDygUMkswxSntldroCOCGvL5eVyaWu9vCWWl7eWmaAvIl8u3Vq8TqWnl+ZnIb9n5pem07B3a/5GmpqamF9C+Z2dX4Dk+uL80seQ3YX5RTh2BpIpODg/PzHlXL0ySaVXnKunpudv3WinI30l4upIZmt7836pVNm6vw57hd1qJSOUq6vlQvXx+vZWxh+RkWOQ0fTs/MgEELkxMgI5nJo9dgwRuTgyD/ozuThyC5KPF0ZGPgEUSyMLiMitkQUg8vGxEeA5BVevIJAjI7Nw9fTIsT4RuXAHZf7aw4fgbl9500WEEti54xLZLhfWypm1rcoy6Eh5rVzewrcq1WVxBwpSyZ+OHFBqJveLC7yn25Wa9LRzteKWmjNuKUNX96fUPNARkocDH1zTrYesvoGI6A8vXHh4zT6fd3VkPTNXLWytrpbBjhSKq5W10mqlWi1lKpXVgk8iTlyIIkOqPklTLQe9E6n0ZJcT0Rn9IVKM2vD+wQfENUk58UC3UGmR7mQvPNi4kD7rElldq5REKCfgXzKreGF9uTAHhahQmSuUl/2VGurZSH+ITFH2tQfX7qSiQCT6QH+IitD5BxeixEZx0vW+hdLW6k5haGe3ApesltYAQ7U6M1RYXd1ZLZ/zRyQ95fyw6SknJ1Pub552kklvb8rb8050k3T9Zen6y9D5/SGybzrc0H1vB8i43ndtdXd1bh2rFApwydoylB4oNZViqbC2U/JrR6ZnwYhSCiQoM7OOeYC9M8iOzDrmARIEZGV22rEjs45xgQSQpGdnkR25MT3rGBD36uzsbHsit+ZR9keAjAsHbcyjxL/33axsbZVK1fIWMiPVwmpGwAWhsCru7Oxs+Sw1X84fW2jwNbOOrxlp52vmHV9zrMHXHFucqvM1yIVPzXbwNQtfLMwvLR1bWro1vzDvbN06trQ4snRx/h1CZHok4sWsmUK5UharO6tryKjsVHfKOMBYHUIFaNNfqflyaR785+RKLR65NQ3xxYobjyzuxSNK53hk1o1HbjTGI2105O+zS/MXF2/Mf/vVWwtfLVxc/GLkq7dGFiZGFr+Yv0XEe9URjwgePAdqsQaCvqO8tlZydgTmXJDB/ZcaKgseEyVZR++zSO/hDRUXOATJCkpQqYF02tnLosIDB2edq5Vp53xlFlw4urp9zLowuwQcbi3uEfnii/nFr24tzd66RQwKPonkVBXHk2fPJhlUd4I0CDujeFBVc/6i+PFLX3/99fnz5y+9//Wl86lUCvZSTpLa33H2zp93T6wl79fvff2+swPpJTc5f6mdHUFl5dYIlJfFCbQF5efYrYX5kSUoNc1ADktEGDxOCIx6cgzVLMPx46/mw7mx43k8TBwfS/og8mpQFEVBEB0RguOJjnIp5511WBGYViLvjLwzD3Z1ZGTeta5OLe8AX9OWSbGRyNjvbwORP7znELn9+2/yYfW93wORgd8P+iISZoLJuBBkGJSGx7PUJ58gdzr1ySeOF/3k41pyKolO6kGacwhE5hcXJt6an//i2NI7SwAENGZ+evEA7wvB2IM7Fy5c0F9h37QuvPLKnWsQ1T/QyWt3LuwTyf+REhn1w393iIz/6U9AZPpPg3j4/B99EoGPySed2w/nw+PIss66vkPZs6yTyLJeck/Cg4zXIlSXZe8vzXlqU2rGl7699e1v/uOtLyYuvjO79JuJb79YOEBHrkW1Ow+lEwPFSX3y4YM3r7EPoop0Tbrw4M7Da573BSJ/visyN7/7y1mHyF//AkT+/a/v4uHX//wH30QGxX0iXk1vscX7ekRE9aYnb+/du3Dvt0h+alGLZiLvLAwsTC8AkYUvFhffmZ3/6ov/mF44SEcU8sKDh3e04h39gnLnzQv6g+HJD5QHWR0FrzUdif/1XZF5+70PXR35z5+ByIf/CTpy5a++dUSI59HPy4jx3Hg2u7CIAouViwtZFH4tLKJ63zQkp1wi94zagFRjtEZg6DvUBhxiM1115Nj8wuLCwsKxhXlQjZGLxxZuHbs4f5AdcWNVp677yivudi12bWtHxr9BduQPQ44d8WdZnUjYs/NgWbPU9esoLk1fv+4E5denaolHZMaORRyJcXtEvvmvf3MkXssV0+I48L0o3rGlI07M6ryP1HSk2fwc1vvmx8Zx8DUnc4hI/uRJFXzNSURkbFD0S2RPkGXtINnORIT//t//E8n/uQv3lLwn4kzyXrK1BHWr1yQdEXsmIiaTcA/JpOD8FJAygphENwFvfSHi1dUmG2puUKlDRILBczNcrZfEKHjWVXjvX//lf4D8y28YXPjt8D08OM6fbCkEXYgMiAQKfC6pPRNx9cpTLkZMzjyeSYqwi473hciK2+az4rSzKitOpU6BOBaIMLmbN69qtjv4yWbP3rzpmOR6IpkP7cfB8Dg21juRS1moRp/K90yk/iuSM98/QrLoKWkfiKB2Vsf7LnntrAu1dlbwNeExTa8X7XSuiQgjXj5x9+bNcfJ2a7HpRuT9G4tLs9dvHoEIk5v99I0nb7wB/z+dQGalL0RujDh1Wc/7LjR43/AYydaLNTzTTCSpaEh0Ld/6A3Ylcmtk8f0jEGFy37+xL98jM9eXUuO0cEwqs7NUQ/sIsqzNRNg2RE5Y7p/8EFlcmD11eCIfNBNJTrgsnrjJW2JfiJwGAKhiSzUkWdfXHIbIsEk60qaQd7Uj8G3nb4bDXkCciR7cE36t6SuY3KcOiR++91Ql3w/LGh/vKAMHEkHyBNmRAcLp004193F27dNziSTiah4JMkPj6VMHyNSlJjVMuiD+QmMY9zun3PTB+7Z2R9cJEG9PBM99NY3krSthPDhj69xv87FX2/ia3FdvdZSJcY8IcenUJXihpgTUvX2QNH1F7hEqLt85+eIcdTnLHJ3IwdLBsjKZ75yBtg/OwfY9hwh9sl21L5nrLHjyUjZ7I5sgKGrlhtLS3HQIeYwo/OCNg/sbIpLrg450IZJntQY54dX+PgzwPC//CJvBGf3yj1fz5tl2RA5qOwjm3r9x8dZECogcuzX7pV8if/cy9kdE5N4zJ8Ik7xrk2OjooGnC+03NvjzkRh1Dx0dHjx938AhJcUgUR3vOD5NzvO91gpocGZn92C+R70PPVUfwc1exwPHwuXuRmBoOznCxD73aLvqNg7U4um1zUVcBIsrEwjTSkcXF1ob8Q8jMI0TBHccYcbbVZ25HgEiIP84E78kylIoZO+ISEXPBpJoTkz3noV6Y5CVqamoS2ZGpKdTZwzDhLk1QTR+Qcyg8QiN7ZUdFHj0XHQEiwWYighpODqpquxaAHjKU9HyN10UKZjjf6sEPEuGx430//d2f/+x4mid/6EOE1k3aE0nC7atCrpcPahQ0ZK2OCNS307mkqAqDPd0ck6wP4t94cjH5QogwQQgxw0xQwMMiGuTXGwovK+p4fDCcg1LzcRqITE6vZNPgj8OfjfdoTHI/PNkH8oPaj3pNN2klksyP59XBJNiRuKrm1bzY/UNaRWVy+Vzy/RtLI4tTQOTYyOx1NZwfH2/T7HSgMOr3NSRPvkdAnouvcSwr+BpEBHxNUszn1Hwyr6qDIhDJ+VKSfD6eS9YRmUdEwsl4b6UGRwVH/cGt2/zUp/aRps9vcaSM+tNNETUcXYUvFG7eTOLII4g5VDkLowLUu9dFn5qLx3EoNcrs4ooTs0KpUYXbas9A0C3n8m/fe/tszruRPhPx+vDqDwXPIUIMJLBz7lwtAun5zhtFFPMisqye90WWVcVz6mDOzwfXNTH2mwiTP59IJNLvtwxj6LeArucF19dka943l1TFZLx3JWmSPuvI4GkpGpVODT1zIhB5OPFIeoqqRWg5UQV348sq1YuP0RK+iAiZAkimYcd/fMYwahJ0JHcpuzJ9A4ikFycgihfB1vYUBTNtx+Y/DyJCIbO2s7GxsbwmICYFprwMO2WmcHCPXmcR1LgaF1FND43RASKOr8FVkB5sKyOqZ1tl9LbJG22k8xSn3okIpeViEcPgRW+UM3hhu0g7O8WNLZ9IBFyN5xvqvvOoNUAQBLyHgCSYU/ThVtHbiiR1nGTSO5HMU3p3u7xeWi9vVbCncxtYZWd9fb1cXt7FSv6IMCJENGJwr9RQN260DlDqKsFRM9IyTyUQaJ27gg4a2Y5EAl2J6C1EsO3CGpqukCls7K5i99HYwALOFLawkk9bElYHxh3LOjnpWNbJNoNhu0oHIm1FNpR6IqFE/Rylg74ZEaESXyebiBTLGaa6JQIIvIKtAgVhfXW1VNjxS0RAbc1Cc923dyKkTyKhxllbXYgoKcoZN7IfvGa2sacZobAW2loXChugIpn11eJaAS9UQr7qNCBiPjnoEIHQzCFSP4T8sJbEPxGqNyKJqDMmwB1Yhg4KTGW3hApKpbgpbGBPhc3i8hzsr9Grfp0NruYgZkV2ZBbZkcmJ2f02NCb3bhtRWz/DP5GUHyJCfHAwn3dbQMCQLKPoo7C5USlixWqxVEBBSYVe9xuSMHgOVZb2fc2xib121rdPgwdBvc2O54iC7xjWteGWkZ4+idA8H/JHBE/iour9MEKpUtyCUEQoLDufujYHlPDt4nLTXbaNmBqldqYYFrx4ZALFI/NL0zUdEdIkGdVYzTQVVolKCdY0Jd1k3+0TET6qRPwREdVwvqYjeGa9Ulwuz+FbRedTd8uZTLlarDbZVUZsEzA1Sk7wzhxs9L7TK/v9NZSpEVIiSpopBSo953XSzEr9I0KbJO2PSFIV4qJQG9qRESsQkG0UMbpS3YVgDTaLT5vMKjN0V9cOluG77ohXIVnzNZ5lTddNvKBMC30OSWo6lB2JJUnLIvtDJIIZWpbypyPwK+byTLJGpLBZLK5uLWPFcgkvbWLF7dUitrHeYFeZ5F3WWXOItC2SJE2NNS3bsrxeckdM64xHRMx19r4UadZdZLlJX4jwKYnlOEv2aUfUfDKsehWvTLlYXRfmisUSCs4yZSxYKFWxSkOpCV6xTC2VSqRSWYpNaKaiZ1OnU4lJyvmZvXx5RFDdd1yoax/5+ON0nY7oUc2SrP2FnXSzP0RCHI3RrOaz1DBJYpzIe6EBhKrrmTlwMwzyuoU5rBgsZDawzXolCZ83SUUnFcokUmyK1XUlS7Ipe4DQFa2FCGQnn0R2ZHoCtaGllxZWvtzXESWqTCoJKYGGbaSyKY3Q+mRHNIIN0aTfUhMPhj/Lu01HQrm4XSg4hmm1hDNbyECV50Bv6i8FIlZWtyWC0M5bCR0chYQCISoLv3irjqi38w3ed2Ti+h4RS5EgctYSRCLK6pOpFHxen3SEjVmmRPkrNYyQD0Pl0nW/mc3i0zJQWIWaHoqBd4I7RXq5tLtbX9ELnydJHYxCwrZTVFaSoAjpqZRtSolEa6kRcuGcgIgsHau1PNfpCKtbGovMqWVZLAkKoh2CSH0FT5abj7tEIlEDAhJ/pYYRBhkRrxF5imr/G3OFwtx2CCuKBaEAkUmxCNWdRiLgHuDuSUtiWZY0WcWUnB2ylYgqut7Xs6yffDJVZ1ldi2q5ZhXAoA8+iAgvJUiDsyHfJKXpCcpIERb8xSQs9FdCMWSXCAcfxGcTfi1rPD+YjztEhK1ikcZ253AnUMWcRhEI2rAIvVtnWx0ipOslPF9hkvWepsGOqHGV6eBrEmiYnx4lE6SE/G/USpiKduLAmNUgDZOwId+mZEFsZ1AaC3/hLRu0xc5qgMclwhtczDZ9Wtb9eo2wXqyAGS07t+TU9JyNp8X1bawy10TkYKnzNWquk/dN6ayuKBKbJaOWhNBQZEI6faCO6FLAVhARLsHaJmVTphILyGyWi9gRIyVxno5gBsf5r9fge4MhhKfF8twGto57RFwPk3laKc9VMHzvRsGymg0qYVkdiYiiGr8tOmMDrqdbIjR36KOlgQ2BVENWxTq41JAm5NV2tjjeNHmThILC2yQXMWXZBFSeHYkmzCMQEXLJsHP7pcpGoeAREUq7WEV0ieyWC2vYVmGfCFRD2NrKkPDSpdrWHil2P0LLqciyKosLsymwrEsLe/UaiEfaadeBljUSkWXXmsIGWlswgnZkeI+gQ3veF61vZth+Sw2eiw8m0XgORASVGqfRGVX1tubcrfuFILZaRwQCj6iehcgsCm6YjaaiOiWxlASHpCYiDPI1Ihp1tdRa96Xalre+1fR0yWdND+VRjI+jPrbqxlwJajT43NzcstMAvQxbWyHs6dwOtrPnbYDIQEKCGI2wB6JgHcAWEGaWkqIDKSXRYkeg1AhBty0e6cjCwsqp50PEkPSYXzsi5AdUZhw1oRXXn6IwZLcSKm6L4swO5q4oVYUodk9F8HBKl8hEijUJYwDisvNaVCEMJaVJRCraQsSZ5dCpXmOyrKmRGqriaewwqZHIoPSDiKFpXEzK+iUi5HOfhcOo+l6qFN1WAKy4iQiA+QCprMHBrToi53WCkLKsqRCJ4RTKqJQlshqhRM+3IyKInYnougWhe8K0FAji9QE7le1PFB+J2qRhkH7jEQbPu4UGHC1WXD++RqMgzckN6Aa9DQWHxob2LwVfYzs2tGn1XTdpJpKPxzvWfYGIRKUpwib1hERZlJ5I9KleQyp2RIv61BEoNLdVt8VIKO9WGDyTobGKqxKFKpgSXFgrVuqaSHqKR1CjoqMjIIjImTPZ+vYRSUeL0EKNF3wwhMEm/Hu3tZG7dyJcKBSL+YziUReimhO99pEKqvhn1jwdweeKaCOzRm/W/XC9EVHj4+K+903Xe9+05Qlbt3FgPHJYIiGNNOxhza+vESBkiLutihCforBsaJfeLKDWgE1sLeP43/UWIhBQORUzC0VYJlhHZBU1rZlIUlWdeKRdy3P8TDvJ96PUGLod42W/Lc+oD9Yb35IpFzdQ99UWVtxmMsxTx8VkILhvrvuSpqRQGqUoFPjfqKJRWfDBerQlHnFG7jj9vq6OUPXeVxxqI8k2PUM+7Ihk8xzp044kB/N5NV9rQ1subuCFuS1wwRsbu/AO1eDyRrFc/7u5RKIUQSVInUgQukawRErXqWg2obT3vrlLlGNZnTXq9vtrDjcD3xcRKDYs59OOCEk0JrE2K1hYpouorwarVKvVCjid5Q26uNmgyC4RRVMGspxOUClJsSRFipqKopkJq5mIk/UkcQVJPP7aa/DqeTCNj1LDQzwi+fU1DGjIYG0MryCUqygeWUflpPQYxSPVpu4rjwiVgiiEyEJUklKU8wkqkcoqWaJFR2ofC2EJehfA2ffcG9a7ZdVjJm+YPi0rI+aZsFA38XSo7DQaweZcBrUqik09nJ5l1SHUBMuKzKkO3hNZVlKzOhBhwuHPRDRRF9nxnsdb9a4jfMqgtWG/NT1BVcP5+tvMDIFlLUGVZgfD1gotv2hv3tcVIT4wTiSZ8MDg7XivY3v91vSUlN+YVciPD4yPE/j+GgP4XJnGaDTaaG5fPwRH5/0SARqO0wmH8d6HGQRHTW/6fqO0G1LjjagJ0aZt+a77iuFkPojO3dlcL5WE0rpQmrlfXa2srs2hbXQIxbM7ZXwLOR0/RHDGG4zaMw3n4mSbVYBBEtl2gpaI5o0A57uXE+wI6oqEPN8vVitb1VKlIuwub1e21reqTGW5XNla3ayu40K1srFZrRGx3KZiSJ1mY8trPrY6EjmaMO1mW352vONjMGKEzvpvQ2PQmHfUyymsF1dXd4r3N1bX6bXKcrWyustgx+9vzG1XV0u4WK0+LSyjpleo6bEKGgMXdZqNSFKSlKgUhX1d6WRZn4UcMJ41opHkEYgERRXKOSJS2VxdrZR3dsv0zvLq8tbWTqYydx8qfcXtDC6srhXKlW3cJZKNZqMSlUoRA1nWUhIQolEDKdh9nkQOGM9Ks4oZM02f8YioJnOq2+9bLpXLm8zm5lyxnCmXC/c3M+uZEmxW1zOFzBr8fXvTI0IlKEqZTGkEQQGRFKETCpFIRalfCJFIKsryuuaTiCCq43FUmxCqGcj43MZ6YaM6tLydWd4s7GwUcCGzVV3frKDWV8EZ/Yx6OZ0hEaxmaqhLztmxNIhJ2F8IkRAfkyOS3/YRXB3MgWFl8FJxbnN3OVMpM/d3yxUoNFvCGo1aBdYq98vlYl3Lsw9f0yBM4zik/hNBYnA+vS8j5IOo/54RSruFre2hwtbOXLV8v7K6Xd4RjtNzQgGfq9yf253Zv5OjEgmq7moF+aOpUTciWeKoPeGgI9tYNbNcXsOq5WJ1bRcrV7Cd+8XMMrYa263vnbDNbkIeRCSsnpZATsSfKREMBWp+iYTDSYdIJjNXmCuuwzu8hMJc5tVXz44WcHS0bq5AmHi9u7x2MJEoyLMmgvklgg8gDVbRqP6GKU7CzLfff/7kyeffvzfTVLUR2rX0NMlB9dvnSETxFY84ASCycm4uvLyIjz994kyefPLk+yYkvlZefDFE5IQPIu1F/PnTvfm1Tx49Ptqc8OasIDvyfIhghhXdE+l0VyLZjkSEx5/WT8F+NNP+NJ9ZUdPZ7HMigoXkPYlwx7sQoRKXOhER3enGvwNBaJ5MHOnem7Oipk8Tz4tIvXSfcRTtNHPRW7jgb3IsFnGXLvA1GbU1E47JglKjp45O5HnNXHRE/BlU5MnfnFVy6N85azn0gwiTjw8OxlUgMtyOyKEs9r4819mt4gQQ+dR7+uUGKMmT9/oABH5WgRGTwQ5EDuPU60UcM9CTS7s8PrVfRJAZqS2k5BCZ7oe3CcbDItFJR8L5U4eI/OolnXYWqaYO/cC5oxD5OyLSbx1hkvnPxpN4vgORk3zMj0TYQz+U8GAiHx1ERKi3I39GdqTLqsaHJkKExY5EjLaTM7sJr/WHSH4cdbKNd2gXF352fQ16Fqfjaz5/ux+WNTw4OBhO/kKJtFlbol7Eiyge+fzi3/7mxiOzfeCBZjLngngu98sk0nEhL3dyp9gYs37an5hViIdR0fmFEukgYlJgkqIoiD/XA+lPvQZgBFFnyK+MiCqE1Zyac6p6bt33jf5V9G6jpphfFxH4GUXBXR1EfO/n7z9/4/NPL/78Tb+ABHOD+cG8+CsismdYGCbIBHGh9Pjb937f2fz6ECEpCsyviEhSTYq5JOP04LiLpgh9bRjx+n1fIJGg0FOOhDxaKUUNQ5LPibn8s+hy8eq+L4rIWrlcEjLOKAfnJeAHL8AjirncIGhIMoeWGhI7nnuEVXzGBwZeoGUdr4Toonh/c720Di/hfhn9P2jZDDAfYDWCyIowwY5NpczbJy77tC3hATH+In3N7Wplq1jGYrvbGxtPi1uhCv0Y29g8YJWIYLBuQYCW8R97m/eM73yukRUe+Czeuaa3RwTNoJEDMs/Dhvsv4ExMlAM8fzQiy8WNzequSN8vViqVVXq7slnc73dp8/CeXG60JlBu3GPCzIePHz/+cKauS/Im+WPB38px4cHwYL5Ta8AeEZm34cWhZZu4gMFxMscBCDsgc3Ag4r9f1xEAAAjOSURBVDWa9kgkwHFcBIhUhUK5WK2Wdqsb1XLl6db93X0g4tuO3NxvLxTeP7G/bNLrqnt86EfuDshva/NlxJ9+untC+eknX2vYBvNhISd0JWIoEdO0SdvgdFnjLJM0bVlWuJjEGizkzEYz0+TeiBj6gEbKr5bLwWBmczkc3CzfL2fKT7dL23s3wIyy8MEcZ9yu+ehw8DRP7zU7sKPuVLVv/u+jR49+ePRvg66SBEeH3aUSbuI+JBwXg+Hu8UhEi0kxXoJcW7IUM5SAYco8qwU0y7BsnTRYxeJ6JELThKmbxKtjICdPjnmCniXtwHDWVxu1nUezhMaddf7RFIr8ec3aG7N/+qQz6lf47//3vxw5UyOioaHwln7P+aTDSi3X+Xh+sGupCcQ0WooEJDsikxGJtiUeESE1lmcNm9c5epjn9gcvHtaO6FGZtRsWUIucqg2+Fh1L8arm6gjhmA2BGXpfUupFOoVmzgvv/esbn4M8+Y1XaoRE9O7Vy1TafXLJYWUPCQTxXVsDZE6xDM1iuYApmSTJ8hqoBNCIRjQDTfdEc8jZHonEKCJAs3tWSI7EIhG6RiScRz3zku7M9k9BCttUMjh0qXEJffK0R2Tv+TWOnFMiJ8NDpg01n2Cu/RDCVhn3VrREa78wh/C+4GUcr4LeattgcAPwTzZtlPbqa6I0RtHaXlnjbZI0Y3tExpyhhlHFliMRTqHQIMMTrUSsDkQkGojYBiKipmOt3rCNRGqPKg0Tn8UPQ+QAkY2mrzykZSUIG4h4o2DBdp8niFh6jwiyE1kuBuz5QIzP6mQPRMJXomfDQ1n0vJ/gaJoOyIeQ2B6RuDgoHCYekd1wpJFFQ9IjEdpQeFozzFSKQOUtwktZY7/UABE2inTRETmg6z0QwcPngs40cjRWCIj0pCOgJES8q/eNaLrGyqZhuREZj955PmK1V6HDETETWoRmkaNySw6UDYt+fZ8IGeVqQAAJmKseiCSTgijOoAEUvRMJqoOH8DURFm7K1A2NtUnWRDO8LNLUDIVri+RwRCIs6AjLkRKrO6UmmkjUlxqS1WP8vsimdiAR7/k17tWZ4dM/kWOahp6u1jMRsCOo57crEZK0eZM3A+BwLSkG4WvU5mw9dgQd4bKaDKXGZpVUBBlpiZKoOiJmFqnhngQM9nQnIvg3f0cDBH736F0vjM+Y7GV6zOaG/BAJoua5ZPdSA+E6eFsTojLSlmImZ+ikxUvtrfjhiIT0FHhfGwK8lPMxZoK160qNSdWrCCiJ9dFMByLM0I8oquGjXt0uOCopr5kDun7WX6nJq2r3eASN/JMhmuINiNhtGb6eg9DMNo5AxFAkDoiwKY3gkY5oisTXWVZSaSQSITsSwYe+QxYn8uM57+LXvIfLnREZH6VmAALkw7Qq1tRBrq3FE3DiEf9EdCMhQakx9ADn2BGwUlw9kezhieAzj5HUOmzCr7mLhpDKkB8i+XxO7VpqepPDEQFbGgId0QaohGNH9KheryNmopEIz3YmwrhPrKo1BoTvkk69x4z6IYJWBu9eap4FEY0gTJo1LdZIoG/h2WyiPh4hoVpZb0bszr4GF95NXLlyJbG3kP94OkGlqMTrCT+lBi4fH+he03sGRECy4H1ZqFKgCE2OhcyGCI1sMK0yqQ13JCLe/YhKUx85rSUoLjt3hr3Ljek/DgX9eN8X2qoIdoTn3ECYZ4mGUgOVeag77quI1C5mJWtETq9M30BEmOSZM0nmnM7fDYzZti/vi1oVgy+ECB2JxAJO3RddIxtSo2UFOxA1nVZLHuoQXJRFRJKX2PoVNXXtI5fIayu3RhYdIqM2B0Si3F0u/913/ojEw/HurYrPgggnSaRG7td9rYTUqCOAhAU3HwCPbyqsU/cVBwkqReRPovez8H5+QHB15MbC/CwQYYJDpj0UDKvHxePJs+iBaT0TCaKx5vkX4msMlkVBX619JCIbcqTe1zgTPnSNNOFdR2urnEjiQSHNmyeDuQHDJj5LnuC1MacfQ7xL3ZhWPlKDyZm3JV2dSaIGe8Zpr+6ZCBotEXwxYwN4zrJoneTqxbjU2GI0rEfR8471YdRi9FESzMTpED8gqIRtEZ+NaphZI/JRGlnW8N1hOHN4+O5+Nnol8iJHSxikLmHmlcsN4rUdo4dLIznOuo2OA0NoT0BEaGNcSMZv346HR/XQPhEAB0TOOJplnsF9E8GZ28EXNVqCJ80Ixo+5CwTWZK8zzx0fO2q7o0Fvh92mYZeI6FzD1BN5fer6JBC5Ej1z+fKZ01f86wgezKF1x1/IaIlQKOSODeg8v4MZNWnnsfG1h5Z5RNxz64lkJxZWgMhl/momc9W4fAQdQQtfuaMlpF/gaIl2REKG10RcT+Q1tNzdR+q5y5GrwXNXAzeOQsQdoRJWlTbj4n8BRLxSs08EIty4RyQH23lPR24sHJtAltV899y5q+bVIxFx867Cp7cd4dtuuYRuIvcywveg6aPMqNtfw7U+4rpBxLvpjz+ZAu8LUQjDJI/XjQpoQ6T9r9xC5MRw64yjcP5Em2fUHCiOz4xmexgFfuCEWmH0VUf2p9jU25q9bSDi+BrP/NabozoiMieD5zJtPmIaAdswvLYMryu/hUi7WWmMOHrW/Vef7G+fHfWSveO3ScdZ8oeeKtCFCN52VEQruLdvImk3NamOSIQybMtmTYUmFFsyyYBpRuyIGSUPT+Qwj25ofA7W8d5nkxz5cWROvjtyqyeikCxpcyGFzkqUZdokF5WJUEozeyDS8431Pr9mLNwj9V5/pNw+kWzEsGzNlmIpQ2PRGotROWVQZk1HhPpbQd4XIYkf7f56n3FEPxg7/mxlLE17bZ+yDZVG3rYN2Y7wqCXdtiM21Bw43iXSeN1JyulrHzjat7/6Y6xHIhhtcM9UDI0KRZqnu9DNB9Axwm64js26ow+O+PU9A8Gc2PUZCmYQbPsnuDULEWu4FY8afcSv/wUKTyQOJ9Th59K9lJfyUl7KS3kpL+WlvJSX8lL+GeX/A0LZUit6ASsfAAAAAElFTkSuQmCC;" vertex="1" parent="AxvtLqLGwLsLvkJOeLT1-3">
          <mxGeometry y="26.650000000000006" width="123" height="83.35" as="geometry" />
        </mxCell>
        <mxCell id="AxvtLqLGwLsLvkJOeLT1-5" value="" style="sketch=0;aspect=fixed;pointerEvents=1;shadow=0;dashed=0;html=1;strokeColor=none;labelPosition=center;verticalLabelPosition=bottom;verticalAlign=top;align=center;fillColor=#00188D;shape=mxgraph.mscae.enterprise.wireless_connection" vertex="1" parent="AxvtLqLGwLsLvkJOeLT1-8">
          <mxGeometry x="138" y="40" width="42" height="50" as="geometry" />
        </mxCell>
        <mxCell id="AxvtLqLGwLsLvkJOeLT1-34" value="" style="group" vertex="1" connectable="0" parent="1">
          <mxGeometry x="274" y="370" width="280" height="140" as="geometry" />
        </mxCell>
        <mxCell id="AxvtLqLGwLsLvkJOeLT1-22" value="" style="group" vertex="1" connectable="0" parent="AxvtLqLGwLsLvkJOeLT1-34">
          <mxGeometry x="104" y="50" width="60" height="90" as="geometry" />
        </mxCell>
        <mxCell id="AxvtLqLGwLsLvkJOeLT1-23" value="" style="verticalLabelPosition=bottom;html=1;verticalAlign=top;align=center;strokeColor=none;fillColor=#00BEF2;shape=mxgraph.azure.mobile_services;pointerEvents=1;" vertex="1" parent="AxvtLqLGwLsLvkJOeLT1-22">
          <mxGeometry x="13.75" width="32.5" height="50" as="geometry" />
        </mxCell>
        <mxCell id="AxvtLqLGwLsLvkJOeLT1-24" value="&lt;div style=&quot;color: rgb(204, 204, 204); background-color: rgb(31, 31, 31); font-family: Consolas, &amp;quot;Courier New&amp;quot;, monospace; font-size: 14px; line-height: 19px;&quot;&gt;Students&lt;/div&gt;" style="text;html=1;strokeColor=none;fillColor=none;align=center;verticalAlign=middle;whiteSpace=wrap;rounded=0;" vertex="1" parent="AxvtLqLGwLsLvkJOeLT1-22">
          <mxGeometry y="60" width="60" height="30" as="geometry" />
        </mxCell>
        <mxCell id="AxvtLqLGwLsLvkJOeLT1-28" value="" style="group" vertex="1" connectable="0" parent="AxvtLqLGwLsLvkJOeLT1-34">
          <mxGeometry width="60" height="90" as="geometry" />
        </mxCell>
        <mxCell id="AxvtLqLGwLsLvkJOeLT1-29" value="" style="verticalLabelPosition=bottom;html=1;verticalAlign=top;align=center;strokeColor=none;fillColor=#00BEF2;shape=mxgraph.azure.mobile_services;pointerEvents=1;" vertex="1" parent="AxvtLqLGwLsLvkJOeLT1-28">
          <mxGeometry x="13.75" width="32.5" height="50" as="geometry" />
        </mxCell>
        <mxCell id="AxvtLqLGwLsLvkJOeLT1-30" value="&lt;div style=&quot;color: rgb(204, 204, 204); background-color: rgb(31, 31, 31); font-family: Consolas, &amp;quot;Courier New&amp;quot;, monospace; font-size: 14px; line-height: 19px;&quot;&gt;Students&lt;/div&gt;" style="text;html=1;strokeColor=none;fillColor=none;align=center;verticalAlign=middle;whiteSpace=wrap;rounded=0;" vertex="1" parent="AxvtLqLGwLsLvkJOeLT1-28">
          <mxGeometry y="60" width="60" height="30" as="geometry" />
        </mxCell>
        <mxCell id="AxvtLqLGwLsLvkJOeLT1-31" value="" style="group" vertex="1" connectable="0" parent="AxvtLqLGwLsLvkJOeLT1-34">
          <mxGeometry x="220" width="60" height="90" as="geometry" />
        </mxCell>
        <mxCell id="AxvtLqLGwLsLvkJOeLT1-32" value="" style="verticalLabelPosition=bottom;html=1;verticalAlign=top;align=center;strokeColor=none;fillColor=#00BEF2;shape=mxgraph.azure.mobile_services;pointerEvents=1;" vertex="1" parent="AxvtLqLGwLsLvkJOeLT1-31">
          <mxGeometry x="13.75" width="32.5" height="50" as="geometry" />
        </mxCell>
        <mxCell id="AxvtLqLGwLsLvkJOeLT1-33" value="&lt;div style=&quot;color: rgb(204, 204, 204); background-color: rgb(31, 31, 31); font-family: Consolas, &amp;quot;Courier New&amp;quot;, monospace; font-size: 14px; line-height: 19px;&quot;&gt;Students&lt;/div&gt;" style="text;html=1;strokeColor=none;fillColor=none;align=center;verticalAlign=middle;whiteSpace=wrap;rounded=0;" vertex="1" parent="AxvtLqLGwLsLvkJOeLT1-31">
          <mxGeometry y="60" width="60" height="30" as="geometry" />
        </mxCell>
        <mxCell id="AxvtLqLGwLsLvkJOeLT1-36" value="" style="sketch=0;aspect=fixed;pointerEvents=1;shadow=0;dashed=0;html=1;strokeColor=none;labelPosition=center;verticalLabelPosition=bottom;verticalAlign=top;align=center;fillColor=#00188D;shape=mxgraph.mscae.enterprise.wireless_connection;direction=north;" vertex="1" parent="AxvtLqLGwLsLvkJOeLT1-34">
          <mxGeometry x="108.5" y="-20" width="50" height="42" as="geometry" />
        </mxCell>
        <mxCell id="AxvtLqLGwLsLvkJOeLT1-35" value="" style="sketch=0;aspect=fixed;pointerEvents=1;shadow=0;dashed=0;html=1;strokeColor=none;labelPosition=center;verticalLabelPosition=bottom;verticalAlign=top;align=center;fillColor=#00188D;shape=mxgraph.mscae.enterprise.wireless_connection;direction=north;" vertex="1" parent="1">
          <mxGeometry x="284" y="314" width="50" height="42" as="geometry" />
        </mxCell>
        <mxCell id="AxvtLqLGwLsLvkJOeLT1-37" value="" style="sketch=0;aspect=fixed;pointerEvents=1;shadow=0;dashed=0;html=1;strokeColor=none;labelPosition=center;verticalLabelPosition=bottom;verticalAlign=top;align=center;fillColor=#00188D;shape=mxgraph.mscae.enterprise.wireless_connection;direction=north;" vertex="1" parent="1">
          <mxGeometry x="494" y="310" width="50" height="42" as="geometry" />
        </mxCell>
        <mxCell id="AxvtLqLGwLsLvkJOeLT1-38" value="Access Captive portal to Register and&amp;nbsp;advance&amp;nbsp;in course" style="text;html=1;strokeColor=none;fillColor=none;align=center;verticalAlign=middle;whiteSpace=wrap;rounded=0;" vertex="1" parent="1">
          <mxGeometry x="296" y="260" width="230" height="30" as="geometry" />
        </mxCell>
      </root>
    </mxGraphModel>
  </diagram>
</mxfile>
